<svg width="210" height="586" viewBox="0 0 210 586" fill="none" xmlns="http://www.w3.org/2000/svg">
<path d="M168.423 0.551178C168.445 6.13387 168.143 13.698 167.162 23.7589L149.723 202.566L146.655 234H168.093H178.552C197.003 234 206.107 241.712 208.474 248.921C212.084 259.926 205.384 278.903 197.907 293L52.0453 568.092C47.8075 576.084 44.3196 581.627 41.5772 585.456C41.5547 579.873 41.8574 572.309 42.8378 562.248L60.277 383.441L63.3401 352.007H41.9071H31.448C12.9968 352.007 3.89316 344.295 1.52576 337.086C-2.08406 326.081 4.61603 307.104 12.0932 293.007L157.955 17.9084C162.193 9.91592 165.68 4.37338 168.423 0.551178Z" fill="url(#paint0_linear)"/>
<path d="M168.423 0.551178C168.445 6.13387 168.143 13.698 167.162 23.7589L149.723 202.566L146.655 234H168.093H178.552C197.003 234 206.107 241.712 208.474 248.921C212.084 259.926 205.384 278.903 197.907 293L52.0453 568.092C47.8075 576.084 44.3196 581.627 41.5772 585.456C41.5547 579.873 41.8574 572.309 42.8378 562.248L60.277 383.441L63.3401 352.007H41.9071H31.448C12.9968 352.007 3.89316 344.295 1.52576 337.086C-2.08406 326.081 4.61603 307.104 12.0932 293.007L157.955 17.9084C162.193 9.91592 165.68 4.37338 168.423 0.551178Z" fill="url(#paint1_linear)"/>
<path d="M155.698 292.698C155.698 268.873 139.599 248.096 116.518 242.17C114.311 241.594 112.056 242.938 111.504 245.145C110.928 247.352 112.272 249.608 114.479 250.159C133.889 255.126 147.445 272.64 147.445 292.698C147.445 310.38 136.912 326.047 121.149 332.933L124.964 324.056C125.851 321.968 124.892 319.545 122.804 318.634C120.717 317.746 118.294 318.706 117.382 320.793L109.944 338.115C109.057 340.203 110.016 342.626 112.104 343.538L129.426 350.975C132.017 351.887 134.177 350.375 134.849 348.816C135.736 346.729 134.777 344.305 132.689 343.394L125.156 340.155C143.51 331.853 155.698 313.427 155.698 292.698V292.698Z" fill="white"/>
<path d="M92.55 335.236C73.1402 330.246 59.5845 312.755 59.5845 292.698C59.5845 275.255 69.8292 259.78 85.2323 252.751L81.6575 261.052C80.7697 263.139 81.6814 265.658 83.8168 266.474C86.312 267.41 88.4233 266.282 89.239 264.315L96.6767 246.968C97.3964 245.289 97.3724 242.77 94.5174 241.546L77.1949 234.108C75.1075 233.221 72.6843 234.18 71.7726 236.268C70.8849 238.355 71.8446 240.778 73.9319 241.69L81.9933 245.145C63.5672 253.47 51.3311 271.92 51.3311 292.698C51.3311 316.522 67.454 337.276 90.5106 343.226C93.2937 343.945 95.0452 342.122 95.525 340.251C96.0769 338.043 94.7573 335.812 92.55 335.236V335.236Z" fill="white"/>
<path d="M113.231 308.245C115.343 306.038 116.398 303.254 116.398 299.943C116.398 298.432 116.135 297.04 115.631 295.745C115.127 294.449 114.407 293.346 113.471 292.386C112.536 291.45 111.312 290.658 109.825 289.987C109.033 289.651 107.449 289.171 105.026 288.571V274.799C106.586 275.111 107.809 275.783 108.721 276.791C109.609 277.799 110.208 279.238 110.496 281.109L115.439 280.366C115.007 277.343 113.759 274.943 111.672 273.216C110.04 271.848 107.833 271.033 105.05 270.769V268.489H102.219V270.769C99.052 271.081 96.6527 271.968 95.0452 273.384C92.622 275.495 91.4224 278.254 91.4224 281.661C91.4224 283.581 91.8303 285.284 92.67 286.796C93.4857 288.307 94.6614 289.483 96.1969 290.323C98.2602 291.474 100.276 292.242 102.243 292.602V307.837C100.372 307.645 98.7401 306.685 97.3965 304.982C96.4608 303.782 95.789 301.887 95.4291 299.32L90.6067 300.231C90.7746 302.703 91.4224 304.814 92.5021 306.541C93.5817 308.269 94.8773 309.516 96.3888 310.284C97.8763 311.052 99.8437 311.58 102.219 311.892V316.666H105.05V311.82C108.409 311.652 111.144 310.452 113.231 308.245ZM102.243 287.971C100.06 287.323 98.5241 286.436 97.6124 285.332C96.7007 284.228 96.2449 282.861 96.2449 281.229C96.2449 279.574 96.7727 278.158 97.8523 276.959C98.932 275.759 100.396 275.015 102.243 274.727V287.971ZM109.657 305.39C108.433 306.781 106.897 307.573 105.05 307.813V293.25C107.617 294.089 109.345 295.025 110.208 296.081C111.072 297.136 111.504 298.528 111.504 300.279C111.48 302.295 110.88 304.022 109.657 305.39V305.39Z" fill="white"/>
<defs>
<linearGradient id="paint0_linear" x1="178.53" y1="-35" x2="-109.669" y2="551.539" gradientUnits="userSpaceOnUse">
<stop stop-color="#4F46E5"/>
<stop offset="1" stop-color="#C0BDF3"/>
</linearGradient>
<linearGradient id="paint1_linear" x1="178.53" y1="-35" x2="-109.669" y2="551.539" gradientUnits="userSpaceOnUse">
<stop stop-color="#4F46E5"/>
<stop offset="1" stop-color="#C0BDF3"/>
</linearGradient>
</defs>
</svg>
